<!--?xml version="1.0" encoding="utf-8"?-->
<!-- Generator: Adobe Illustrator 18.0.0, SVG Export Plug-In . SVG Version: 6.00 Build 0)  -->

<svg version="1.1" id="_x32_" xmlns="http://www.w3.org/2000/svg" xmlns:xlink="http://www.w3.org/1999/xlink" x="0px" y="0px" viewBox="0 0 512 512" style="width: 256px; height: 256px; opacity: 1;" xml:space="preserve">
<style type="text/css">
	.st0{fill:#4B4B4B;}
</style>
<g>
	<path class="st0" d="M407.638,0L383.95,91.791H13.013L82.03,331.293h240.113l-8.656,33.541H98.845v35.308h241.992l94.149-364.836
		h64.002V0H407.638z M287.152,295.986v-67.67h61.566l-17.463,67.67H287.152z M374.839,127.098l-17.01,65.912h-70.678v-65.912
		H374.839z M251.845,228.316v67.67h-69.676v-67.67H251.845z M251.845,127.098v65.912h-69.676v-65.912H251.845z M146.862,127.098
		v65.912H78.927l-18.994-65.912H146.862z M146.862,228.316v67.67h-38.262l-19.502-67.67H146.862z" style="fill: rgb(75, 75, 75);"></path>
	<path class="st0" d="M132.568,415.037c-26.184,0-47.486,21.301-47.486,47.484s21.303,47.486,47.486,47.486
		s47.484-21.303,47.484-47.486S158.751,415.037,132.568,415.037z M132.568,474.701c-6.717,0-12.18-5.463-12.18-12.18
		s5.463-12.178,12.18-12.178c6.715,0,12.178,5.461,12.178,12.178S139.282,474.701,132.568,474.701z" style="fill: rgb(75, 75, 75);"></path>
	<path class="st0" d="M299.62,417.024c-26.184,0-47.486,21.301-47.486,47.49c0,26.186,21.302,47.486,47.486,47.486
		s47.484-21.301,47.484-47.486C347.104,438.324,325.804,417.024,299.62,417.024z M299.62,476.693
		c-6.717,0-12.178-5.461-12.178-12.18c0-6.715,5.461-12.184,12.178-12.184s12.178,5.469,12.178,12.184
		C311.798,471.232,306.337,476.693,299.62,476.693z" style="fill: rgb(75, 75, 75);"></path>
</g>
</svg>
